<svg xmlns="http://www.w3.org/2000/svg" xmlns:xlink="http://www.w3.org/1999/xlink" width="210" zoomAndPan="magnify"
    viewBox="0 0 600 225" height="150" preserveAspectRatio="xMidYMid meet" version="1.0">
    <defs>
        <g />
        <clipPath id="408eb02eeb">
            <path d="M 457 69 L 499 69 L 499 113 L 457 113 Z M 457 69 " clip-rule="nonzero" />
        </clipPath>
        <clipPath id="71acc1d693">
            <path
                d="M 494.789062 63.902344 L 501.25 107.679688 L 463.410156 113.261719 L 456.949219 69.484375 Z M 494.789062 63.902344 "
                clip-rule="nonzero" />
        </clipPath>
        <clipPath id="cc272b82b6">
            <path
                d="M 495.113281 63.855469 L 501.574219 107.628906 L 463.734375 113.214844 L 457.273438 69.4375 Z M 495.113281 63.855469 "
                clip-rule="nonzero" />
        </clipPath>
        <clipPath id="899317880c">
            <path d="M 415 59 L 461 59 L 461 100 L 415 100 Z M 415 59 " clip-rule="nonzero" />
        </clipPath>
        <clipPath id="49b3673b3d">
            <path
                d="M 471.53125 78.824219 L 448.335938 118.257812 L 414.71875 98.480469 L 437.917969 59.050781 Z M 471.53125 78.824219 "
                clip-rule="nonzero" />
        </clipPath>
        <clipPath id="d91e143755">
            <path
                d="M 471.824219 78.996094 L 448.625 118.429688 L 414.363281 98.273438 L 437.5625 58.839844 Z M 471.824219 78.996094 "
                clip-rule="nonzero" />
        </clipPath>
        <clipPath id="1b2ab8603b">
            <path d="M 416 105 L 462 105 L 462 153 L 416 153 Z M 416 105 " clip-rule="nonzero" />
        </clipPath>
        <clipPath id="f068047486">
            <path
                d="M 479.261719 136.761719 L 441.496094 167.585938 L 415.414062 135.625 L 453.183594 104.804688 Z M 479.261719 136.761719 "
                clip-rule="nonzero" />
        </clipPath>
        <clipPath id="777c8fd5bb">
            <path
                d="M 479.488281 137.039062 L 441.722656 167.863281 L 415.164062 135.324219 L 452.933594 104.5 Z M 479.488281 137.039062 "
                clip-rule="nonzero" />
        </clipPath>
        <clipPath id="6df7f33c21">
            <path
                d="M 87.316406 77.480469 L 139.066406 77.480469 L 139.066406 131.480469 L 87.316406 131.480469 Z M 87.316406 77.480469 "
                clip-rule="nonzero" />
        </clipPath>
        <clipPath id="77e9721c19">
            <path
                d="M 325.59375 84.175781 L 373.59375 84.175781 L 373.59375 132.175781 L 325.59375 132.175781 Z M 325.59375 84.175781 "
                clip-rule="nonzero" />
        </clipPath>
    </defs>
    <g clip-path="url(#408eb02eeb)">
        <g clip-path="url(#71acc1d693)">
            <g clip-path="url(#cc272b82b6)">
                <path fill="#f7dc69"
                    d="M 467.054688 112.328125 L 497.488281 87.476562 L 497.488281 87.46875 C 498.078125 86.996094 498.417969 86.238281 498.296875 85.433594 C 498.191406 84.710938 497.746094 84.128906 497.148438 83.8125 L 497.148438 83.808594 L 497.121094 83.796875 C 497.007812 83.738281 496.890625 83.695312 496.765625 83.65625 L 460.695312 69.320312 L 460.691406 69.320312 C 460.316406 69.140625 459.882812 69.0625 459.4375 69.128906 C 458.242188 69.304688 457.417969 70.421875 457.597656 71.621094 L 463.410156 111.03125 C 463.589844 112.230469 464.699219 113.0625 465.894531 112.882812 C 466.34375 112.816406 466.742188 112.617188 467.054688 112.328125 Z M 467.054688 112.328125 "
                    fill-opacity="1" fill-rule="nonzero" />
            </g>
        </g>
    </g>
    <g clip-path="url(#899317880c)">
        <g clip-path="url(#49b3673b3d)">
            <g clip-path="url(#d91e143755)">
                <path fill="#7ce6d7"
                    d="M 417.628906 99.722656 L 458.40625 99.550781 L 458.414062 99.542969 C 459.195312 99.546875 459.964844 99.15625 460.390625 98.433594 C 460.769531 97.78125 460.789062 97.023438 460.507812 96.378906 L 460.511719 96.375 L 460.5 96.351562 C 460.445312 96.230469 460.378906 96.117188 460.304688 96.007812 L 440.40625 60.972656 C 440.21875 60.578125 439.917969 60.238281 439.515625 60 C 438.433594 59.367188 437.042969 59.726562 436.40625 60.804688 L 415.519531 96.308594 C 414.886719 97.386719 415.246094 98.777344 416.328125 99.414062 C 416.738281 99.65625 417.1875 99.753906 417.628906 99.722656 Z M 417.628906 99.722656 "
                    fill-opacity="1" fill-rule="nonzero" />
            </g>
        </g>
    </g>
    <g clip-path="url(#1b2ab8603b)">
        <g clip-path="url(#f068047486)">
            <g clip-path="url(#777c8fd5bb)">
                <path fill="#e684c3"
                    d="M 417.871094 137.957031 L 458.484375 152.625 L 458.492188 152.617188 C 459.269531 152.910156 460.179688 152.800781 460.871094 152.234375 C 461.496094 151.726562 461.792969 150.972656 461.757812 150.234375 L 461.761719 150.230469 L 461.757812 150.199219 C 461.75 150.0625 461.726562 149.921875 461.691406 149.785156 L 454.96875 107.65625 C 454.929688 107.199219 454.753906 106.75 454.441406 106.367188 C 453.605469 105.339844 452.085938 105.191406 451.050781 106.039062 L 417.046875 133.785156 C 416.011719 134.632812 415.855469 136.148438 416.691406 137.175781 C 417.007812 137.5625 417.421875 137.824219 417.871094 137.957031 Z M 417.871094 137.957031 "
                    fill-opacity="1" fill-rule="nonzero" />
            </g>
        </g>
    </g>
    <g fill="#222222" fill-opacity="1">
        <g transform="translate(93.616615, 123.040277)">
            <g>
                <path
                    d="M 40.4375 -21.890625 C 40.4375 -14.273438 38.828125 -8.566406 35.609375 -4.765625 C 32.390625 -0.972656 27.710938 0.921875 21.578125 0.921875 C 15.097656 0.921875 10.332031 -1.078125 7.28125 -5.078125 C 4.238281 -9.078125 2.71875 -14.679688 2.71875 -21.890625 C 2.71875 -29.148438 4.238281 -34.765625 7.28125 -38.734375 C 10.332031 -42.710938 15.097656 -44.703125 21.578125 -44.703125 C 28.097656 -44.703125 32.867188 -42.710938 35.890625 -38.734375 C 38.921875 -34.765625 40.4375 -29.148438 40.4375 -21.890625 Z M 31.234375 -21.890625 C 31.234375 -27.078125 30.5 -30.859375 29.03125 -33.234375 C 27.5625 -35.609375 25.078125 -36.796875 21.578125 -36.796875 C 18.078125 -36.796875 15.59375 -35.609375 14.125 -33.234375 C 12.65625 -30.859375 11.921875 -27.078125 11.921875 -21.890625 C 11.921875 -16.703125 12.664062 -12.921875 14.15625 -10.546875 C 15.644531 -8.179688 18.117188 -7 21.578125 -7 C 25.078125 -7 27.5625 -8.179688 29.03125 -10.546875 C 30.5 -12.921875 31.234375 -16.703125 31.234375 -21.890625 Z M 31.234375 -21.890625 " />
            </g>
        </g>
    </g>
    <g fill="#222222" fill-opacity="1">
        <g transform="translate(136.761939, 123.040277)">
            <g>
                <path
                    d="M 25.96875 0 L 25.96875 -18.28125 C 25.96875 -21.738281 25.65625 -24.046875 25.03125 -25.203125 C 24.414062 -26.367188 23.242188 -26.953125 21.515625 -26.953125 C 19.085938 -26.953125 16.164062 -25.347656 12.75 -22.140625 L 12.75 0 L 4.59375 0 L 4.59375 -33.1875 L 12.75 -33.1875 L 12.75 -28.890625 C 14.476562 -30.617188 16.320312 -31.925781 18.28125 -32.8125 C 20.25 -33.695312 22.171875 -34.140625 24.046875 -34.140625 C 27.441406 -34.140625 29.972656 -33.207031 31.640625 -31.34375 C 33.304688 -29.488281 34.140625 -26.421875 34.140625 -22.140625 L 34.140625 0 Z M 25.96875 0 " />
            </g>
        </g>
    </g>
    <g fill="#222222" fill-opacity="1">
        <g transform="translate(175.257436, 123.040277)">
            <g>
                <path
                    d="M 29.9375 -9.453125 C 29.9375 -7.265625 29.378906 -5.390625 28.265625 -3.828125 C 27.160156 -2.265625 25.585938 -1.070312 23.546875 -0.25 C 21.515625 0.570312 19.191406 0.984375 16.578125 0.984375 C 9.640625 0.984375 4.914062 -0.945312 2.40625 -4.8125 L 8.484375 -9.078125 C 9.472656 -7.734375 10.613281 -6.832031 11.90625 -6.375 C 13.207031 -5.914062 14.597656 -5.6875 16.078125 -5.6875 C 19.953125 -5.6875 21.890625 -6.816406 21.890625 -9.078125 C 21.890625 -10.066406 21.34375 -10.832031 20.25 -11.375 C 19.15625 -11.914062 17.4375 -12.46875 15.09375 -13.03125 C 10.6875 -14 7.582031 -15.367188 5.78125 -17.140625 C 3.988281 -18.921875 3.09375 -21.222656 3.09375 -24.046875 C 3.09375 -26.972656 4.21875 -29.382812 6.46875 -31.28125 C 8.71875 -33.1875 12.023438 -34.140625 16.390625 -34.140625 C 19.359375 -34.140625 21.976562 -33.664062 24.25 -32.71875 C 26.519531 -31.769531 28.265625 -30.34375 29.484375 -28.4375 L 23.375 -24.109375 C 21.925781 -26.347656 19.554688 -27.46875 16.265625 -27.46875 C 14.578125 -27.46875 13.300781 -27.175781 12.4375 -26.59375 C 11.570312 -26.007812 11.140625 -25.265625 11.140625 -24.359375 C 11.140625 -23.492188 11.53125 -22.800781 12.3125 -22.28125 C 13.09375 -21.769531 14.628906 -21.226562 16.921875 -20.65625 C 20.703125 -19.726562 23.398438 -18.804688 25.015625 -17.890625 C 26.628906 -16.972656 27.851562 -15.832031 28.6875 -14.46875 C 29.519531 -13.113281 29.9375 -11.441406 29.9375 -9.453125 Z M 29.9375 -9.453125 " />
            </g>
        </g>
    </g>
    <g fill="#222222" fill-opacity="1">
        <g transform="translate(207.711323, 123.040277)">
            <g>
                <path
                    d="M 22.9375 0 C 20.738281 0.65625 18.429688 0.984375 16.015625 0.984375 C 12.171875 0.984375 9.40625 0.117188 7.71875 -1.609375 C 6.03125 -3.335938 5.1875 -6.144531 5.1875 -10.03125 L 5.1875 -26.703125 L 0.984375 -26.703125 L 0.984375 -33.1875 L 5.1875 -33.1875 L 5.1875 -42.421875 L 13.359375 -42.421875 L 13.359375 -33.1875 L 21.078125 -33.1875 L 21.078125 -26.703125 L 13.359375 -26.703125 L 13.359375 -11.078125 C 13.359375 -9.003906 13.675781 -7.597656 14.3125 -6.859375 C 14.957031 -6.128906 15.867188 -5.765625 17.046875 -5.765625 C 18.546875 -5.765625 20.035156 -6.066406 21.515625 -6.671875 Z M 22.9375 0 " />
            </g>
        </g>
    </g>
    <g fill="#222222" fill-opacity="1">
        <g transform="translate(231.086978, 123.040277)">
            <g>
                <path
                    d="M 24.171875 0 L 24.171875 -3.453125 C 20.941406 -0.492188 17.484375 0.984375 13.796875 0.984375 C 10.128906 0.984375 7.351562 0.0195312 5.46875 -1.90625 C 3.59375 -3.84375 2.65625 -6.316406 2.65625 -9.328125 C 2.65625 -11.691406 3.132812 -13.644531 4.09375 -15.1875 C 5.050781 -16.726562 6.472656 -17.9375 8.359375 -18.8125 C 10.253906 -19.6875 12.972656 -20.300781 16.515625 -20.65625 L 23.515625 -21.328125 L 23.515625 -22.8125 C 23.515625 -24.664062 22.953125 -25.9375 21.828125 -26.625 C 20.710938 -27.3125 19.078125 -27.65625 16.921875 -27.65625 C 15.148438 -27.65625 13.625 -27.359375 12.34375 -26.765625 C 11.070312 -26.171875 10.128906 -25.328125 9.515625 -24.234375 L 3.15625 -28.3125 C 4.28125 -30.195312 6.03125 -31.640625 8.40625 -32.640625 C 10.789062 -33.640625 13.671875 -34.140625 17.046875 -34.140625 C 22.222656 -34.140625 25.953125 -33.238281 28.234375 -31.4375 C 30.523438 -29.632812 31.671875 -26.675781 31.671875 -22.5625 L 31.671875 0 Z M 23.515625 -15.40625 L 19.359375 -15.03125 C 16.429688 -14.78125 14.316406 -14.21875 13.015625 -13.34375 C 11.722656 -12.476562 11.078125 -11.179688 11.078125 -9.453125 C 11.078125 -7.941406 11.5 -6.90625 12.34375 -6.34375 C 13.1875 -5.78125 14.300781 -5.5 15.6875 -5.5 C 16.6875 -5.5 17.894531 -5.8125 19.3125 -6.4375 C 20.738281 -7.0625 22.140625 -7.941406 23.515625 -9.078125 Z M 23.515625 -15.40625 " />
            </g>
        </g>
    </g>
    <g fill="#222222" fill-opacity="1">
        <g transform="translate(267.115221, 123.040277)">
            <g>
                <path
                    d="M 33.890625 -0.625 C 33.890625 3.800781 32.523438 7.09375 29.796875 9.25 C 27.078125 11.414062 22.710938 12.5 16.703125 12.5 C 11.742188 12.5 7.410156 11.550781 3.703125 9.65625 L 6.109375 2.96875 C 9.546875 4.570312 13.078125 5.375 16.703125 5.375 C 20.078125 5.375 22.421875 4.890625 23.734375 3.921875 C 25.054688 2.953125 25.71875 1.316406 25.71875 -0.984375 L 25.71875 -3.703125 C 23.019531 -1.234375 19.765625 0 15.953125 0 C 11.898438 0 8.710938 -1.453125 6.390625 -4.359375 C 4.066406 -7.273438 2.90625 -11.460938 2.90625 -16.921875 C 2.90625 -20.335938 3.445312 -23.347656 4.53125 -25.953125 C 5.625 -28.566406 7.21875 -30.582031 9.3125 -32 C 11.414062 -33.425781 13.953125 -34.140625 16.921875 -34.140625 C 18.671875 -34.140625 20.421875 -33.753906 22.171875 -32.984375 C 23.929688 -32.210938 25.398438 -31.238281 26.578125 -30.0625 L 27.65625 -33.1875 L 33.890625 -33.1875 Z M 25.71875 -23.984375 C 23.488281 -25.960938 21.050781 -26.953125 18.40625 -26.953125 C 16.425781 -26.953125 14.75 -26.046875 13.375 -24.234375 C 12.007812 -22.421875 11.328125 -20.023438 11.328125 -17.046875 C 11.328125 -13.671875 11.929688 -11.179688 13.140625 -9.578125 C 14.359375 -7.984375 15.9375 -7.1875 17.875 -7.1875 C 20.570312 -7.1875 23.1875 -8.269531 25.71875 -10.4375 Z M 25.71875 -23.984375 " />
            </g>
        </g>
    </g>
    <g fill="#222222" fill-opacity="1">
        <g transform="translate(305.610719, 123.040277)">
            <g>
                <path
                    d="M 24.609375 -25.21875 C 23.765625 -25.632812 22.648438 -25.84375 21.265625 -25.84375 C 19.742188 -25.84375 18.300781 -25.476562 16.9375 -24.75 C 15.582031 -24.03125 14.1875 -22.972656 12.75 -21.578125 L 12.75 0 L 4.59375 0 L 4.59375 -33.1875 L 12.75 -33.1875 L 12.75 -28.4375 C 14.144531 -29.957031 15.640625 -31.210938 17.234375 -32.203125 C 18.835938 -33.203125 20.632812 -33.703125 22.625 -33.703125 C 24.3125 -33.703125 25.515625 -33.476562 26.234375 -33.03125 Z M 24.609375 -25.21875 " />
            </g>
        </g>
    </g>
    <g fill="#222222" fill-opacity="1">
        <g transform="translate(332.181152, 123.040277)">
            <g>
                <path
                    d="M 24.171875 0 L 24.171875 -3.453125 C 20.941406 -0.492188 17.484375 0.984375 13.796875 0.984375 C 10.128906 0.984375 7.351562 0.0195312 5.46875 -1.90625 C 3.59375 -3.84375 2.65625 -6.316406 2.65625 -9.328125 C 2.65625 -11.691406 3.132812 -13.644531 4.09375 -15.1875 C 5.050781 -16.726562 6.472656 -17.9375 8.359375 -18.8125 C 10.253906 -19.6875 12.972656 -20.300781 16.515625 -20.65625 L 23.515625 -21.328125 L 23.515625 -22.8125 C 23.515625 -24.664062 22.953125 -25.9375 21.828125 -26.625 C 20.710938 -27.3125 19.078125 -27.65625 16.921875 -27.65625 C 15.148438 -27.65625 13.625 -27.359375 12.34375 -26.765625 C 11.070312 -26.171875 10.128906 -25.328125 9.515625 -24.234375 L 3.15625 -28.3125 C 4.28125 -30.195312 6.03125 -31.640625 8.40625 -32.640625 C 10.789062 -33.640625 13.671875 -34.140625 17.046875 -34.140625 C 22.222656 -34.140625 25.953125 -33.238281 28.234375 -31.4375 C 30.523438 -29.632812 31.671875 -26.675781 31.671875 -22.5625 L 31.671875 0 Z M 23.515625 -15.40625 L 19.359375 -15.03125 C 16.429688 -14.78125 14.316406 -14.21875 13.015625 -13.34375 C 11.722656 -12.476562 11.078125 -11.179688 11.078125 -9.453125 C 11.078125 -7.941406 11.5 -6.90625 12.34375 -6.34375 C 13.1875 -5.78125 14.300781 -5.5 15.6875 -5.5 C 16.6875 -5.5 17.894531 -5.8125 19.3125 -6.4375 C 20.738281 -7.0625 22.140625 -7.941406 23.515625 -9.078125 Z M 23.515625 -15.40625 " />
            </g>
        </g>
    </g>
    <g fill="#222222" fill-opacity="1">
        <g transform="translate(368.209395, 123.040277)">
            <g>
                <path
                    d="M 44.140625 0 L 44.140625 -19.546875 C 44.140625 -21.515625 44.019531 -23.046875 43.78125 -24.140625 C 43.550781 -25.234375 43.195312 -25.972656 42.71875 -26.359375 C 42.25 -26.753906 41.46875 -26.953125 40.375 -26.953125 C 39.125 -26.953125 37.800781 -26.488281 36.40625 -25.5625 C 35.019531 -24.632812 33.726562 -23.492188 32.53125 -22.140625 L 32.53125 0 L 24.359375 0 L 24.359375 -19.546875 C 24.359375 -21.703125 24.265625 -23.257812 24.078125 -24.21875 C 23.890625 -25.175781 23.550781 -25.867188 23.0625 -26.296875 C 22.582031 -26.734375 21.757812 -26.953125 20.59375 -26.953125 C 19.582031 -26.953125 18.410156 -26.566406 17.078125 -25.796875 C 15.753906 -25.023438 14.3125 -23.804688 12.75 -22.140625 L 12.75 0 L 4.59375 0 L 4.59375 -33.1875 L 12.75 -33.1875 L 12.75 -28.890625 C 14.269531 -30.535156 15.863281 -31.820312 17.53125 -32.75 C 19.195312 -33.675781 21.039062 -34.140625 23.0625 -34.140625 C 25.820312 -34.140625 27.863281 -33.664062 29.1875 -32.71875 C 30.507812 -31.769531 31.410156 -30.363281 31.890625 -28.5 C 33.785156 -30.40625 35.5625 -31.820312 37.21875 -32.75 C 38.875 -33.675781 40.8125 -34.140625 43.03125 -34.140625 C 46.257812 -34.140625 48.609375 -33.222656 50.078125 -31.390625 C 51.554688 -29.554688 52.296875 -26.472656 52.296875 -22.140625 L 52.296875 0 Z M 44.140625 0 " />
            </g>
        </g>
    </g>
    <g fill="#222222" fill-opacity="1">
        <g transform="translate(424.829723, 123.040277)">
            <g>
                <path
                    d="M 29.9375 -9.453125 C 29.9375 -7.265625 29.378906 -5.390625 28.265625 -3.828125 C 27.160156 -2.265625 25.585938 -1.070312 23.546875 -0.25 C 21.515625 0.570312 19.191406 0.984375 16.578125 0.984375 C 9.640625 0.984375 4.914062 -0.945312 2.40625 -4.8125 L 8.484375 -9.078125 C 9.472656 -7.734375 10.613281 -6.832031 11.90625 -6.375 C 13.207031 -5.914062 14.597656 -5.6875 16.078125 -5.6875 C 19.953125 -5.6875 21.890625 -6.816406 21.890625 -9.078125 C 21.890625 -10.066406 21.34375 -10.832031 20.25 -11.375 C 19.15625 -11.914062 17.4375 -12.46875 15.09375 -13.03125 C 10.6875 -14 7.582031 -15.367188 5.78125 -17.140625 C 3.988281 -18.921875 3.09375 -21.222656 3.09375 -24.046875 C 3.09375 -26.972656 4.21875 -29.382812 6.46875 -31.28125 C 8.71875 -33.1875 12.023438 -34.140625 16.390625 -34.140625 C 19.359375 -34.140625 21.976562 -33.664062 24.25 -32.71875 C 26.519531 -31.769531 28.265625 -30.34375 29.484375 -28.4375 L 23.375 -24.109375 C 21.925781 -26.347656 19.554688 -27.46875 16.265625 -27.46875 C 14.578125 -27.46875 13.300781 -27.175781 12.4375 -26.59375 C 11.570312 -26.007812 11.140625 -25.265625 11.140625 -24.359375 C 11.140625 -23.492188 11.53125 -22.800781 12.3125 -22.28125 C 13.09375 -21.769531 14.628906 -21.226562 16.921875 -20.65625 C 20.703125 -19.726562 23.398438 -18.804688 25.015625 -17.890625 C 26.628906 -16.972656 27.851562 -15.832031 28.6875 -14.46875 C 29.519531 -13.113281 29.9375 -11.441406 29.9375 -9.453125 Z M 29.9375 -9.453125 " />
            </g>
        </g>
    </g>
    <g clip-path="url(#6df7f33c21)">
        <path fill="#fac959"
            d="M 113.191406 77.515625 C 127.480469 77.515625 139.066406 89.035156 139.066406 103.242188 C 139.066406 109.25 136.992188 114.777344 133.519531 119.15625 C 132.945312 120.9375 132.21875 122.746094 131.371094 124.246094 C 129.488281 127.585938 127.011719 129.421875 124.914062 130.382812 C 122.820312 131.347656 121.109375 131.4375 119.507812 131.039062 C 118.074219 130.679688 116.726562 129.929688 115.980469 128.820312 C 115.0625 128.914062 114.132812 128.964844 113.191406 128.964844 C 109.199219 128.964844 105.417969 128.066406 102.042969 126.460938 C 101.789062 126.886719 101.480469 127.265625 101.113281 127.570312 C 99.960938 128.523438 98.238281 128.746094 96.613281 128.476562 C 94.984375 128.207031 93.449219 127.441406 91.917969 125.726562 C 90.382812 124.011719 88.851562 121.347656 88.464844 117.535156 C 88.273438 115.605469 88.375 113.390625 88.621094 111.320312 C 87.773438 108.777344 87.316406 106.066406 87.316406 103.242188 C 87.316406 89.035156 98.902344 77.515625 113.191406 77.515625 Z M 113.191406 77.515625 "
            fill-opacity="1" fill-rule="evenodd" />
    </g>
    <path fill="#36384e"
        d="M 96.324219 97.871094 C 95.703125 98.28125 94.859375 98.117188 94.445312 97.496094 C 94.03125 96.878906 94.199219 96.039062 94.820312 95.625 L 94.910156 95.570312 C 96.128906 94.765625 97.363281 93.960938 99.078125 93.535156 C 100.78125 93.113281 102.777344 93.113281 104.773438 93.113281 C 105.519531 93.113281 106.128906 93.71875 106.128906 94.460938 C 106.128906 95.207031 105.519531 95.8125 104.773438 95.8125 C 102.9375 95.8125 101.097656 95.8125 99.734375 96.148438 C 98.464844 96.464844 97.433594 97.136719 96.410156 97.8125 Z M 114.929688 95.414062 C 114.402344 95.941406 113.542969 95.941406 113.015625 95.414062 C 112.484375 94.890625 112.484375 94.035156 113.015625 93.507812 C 114.261719 92.269531 115.511719 91.023438 117.332031 90.347656 C 119.101562 89.683594 121.136719 89.683594 123.171875 89.683594 C 123.921875 89.683594 124.53125 90.289062 124.53125 91.03125 C 124.53125 91.777344 123.921875 92.382812 123.171875 92.382812 C 121.375 92.382812 119.578125 92.382812 118.28125 92.863281 C 117.035156 93.328125 115.980469 94.371094 114.929688 95.414062 Z M 114.929688 95.414062 "
        fill-opacity="1" fill-rule="nonzero" />
    <path fill="#cf6d05"
        d="M 95.574219 92.382812 C 94.824219 92.382812 94.214844 91.777344 94.214844 91.03125 C 94.214844 90.289062 94.824219 89.683594 95.574219 89.683594 C 97.070312 89.683594 98.566406 89.679688 99.792969 89.507812 C 100.386719 89.425781 100.933594 89.296875 101.40625 89.132812 C 101.820312 88.988281 102.171875 88.8125 102.429688 88.621094 C 102.664062 88.449219 102.855469 88.21875 103.023438 87.972656 L 103.078125 87.894531 C 103.25 87.625 103.410156 87.3125 103.566406 87 C 103.898438 86.339844 104.710938 86.070312 105.378906 86.398438 C 106.042969 86.730469 106.316406 87.539062 105.980469 88.203125 C 105.789062 88.589844 105.59375 88.976562 105.34375 89.367188 L 105.28125 89.46875 C 104.96875 89.933594 104.582031 90.378906 104.050781 90.773438 C 103.558594 91.140625 102.96875 91.441406 102.308594 91.671875 C 101.664062 91.898438 100.941406 92.066406 100.171875 92.175781 C 98.71875 92.378906 97.144531 92.382812 95.574219 92.382812 Z M 110.925781 85.296875 C 110.300781 84.882812 110.128906 84.042969 110.542969 83.425781 C 110.960938 82.804688 111.804688 82.636719 112.425781 83.050781 L 112.507812 83.105469 C 113.515625 83.773438 114.542969 84.4375 116.15625 84.753906 C 117.046875 84.933594 118.128906 85.023438 119.296875 85.066406 L 119.3125 85.070312 C 120.414062 85.109375 121.792969 85.109375 123.171875 85.109375 C 123.921875 85.109375 124.53125 85.714844 124.53125 86.457031 C 124.53125 87.203125 123.921875 87.808594 123.171875 87.808594 C 121.882812 87.808594 120.59375 87.804688 119.207031 87.753906 L 119.191406 87.753906 C 117.871094 87.703125 116.644531 87.601562 115.625 87.398438 C 113.496094 86.976562 112.242188 86.164062 111.007812 85.347656 Z M 110.925781 85.296875 "
        fill-opacity="1" fill-rule="nonzero" />
    <path fill="#7e4119"
        d="M 105.734375 102.527344 C 104.988281 102.421875 104.476562 101.738281 104.578125 101.003906 C 104.683594 100.277344 105.355469 99.765625 106.089844 99.859375 C 106.984375 99.960938 107.878906 100.066406 108.910156 99.808594 C 110.050781 99.523438 111.507812 98.796875 112.960938 98.078125 L 113.039062 98.039062 C 113.707031 97.746094 114.496094 98.039062 114.808594 98.699219 C 115.117188 99.363281 114.839844 100.152344 114.179688 100.472656 L 114.167969 100.480469 C 112.570312 101.273438 110.96875 102.070312 109.566406 102.421875 C 108.054688 102.800781 106.914062 102.667969 105.769531 102.53125 Z M 105.734375 102.527344 "
        fill-opacity="1" fill-rule="nonzero" />
    <path fill="#ef2945"
        d="M 104.597656 100.394531 C 107.667969 101.601562 109.648438 104.378906 109.960938 107.433594 C 112.285156 105.414062 115.636719 104.722656 118.710938 105.929688 C 122.410156 107.378906 124.523438 111.117188 124.050781 114.867188 C 122.679688 115.085938 121.367188 115.257812 120.355469 115.515625 C 118.234375 116.054688 117.425781 116.949219 117.644531 117.878906 C 117.867188 118.804688 119.117188 119.765625 119.316406 120.265625 C 119.515625 120.765625 118.65625 120.8125 117.824219 121.285156 C 116.992188 121.753906 116.179688 122.648438 115.699219 123.980469 L 115.675781 124.050781 C 109.449219 127.726562 101.882812 130.21875 101.683594 128.300781 C 101.363281 128.582031 100.925781 128.460938 100.417969 128.027344 C 100.664062 127.898438 100.898438 127.746094 101.113281 127.570312 C 102.261719 126.617188 102.839844 124.933594 102.9375 123.519531 C 103.035156 122.105469 102.648438 120.964844 102.074219 120.203125 C 101.5 119.441406 100.734375 119.058594 101.117188 118.675781 C 101.5 118.296875 103.03125 117.914062 103.609375 117.152344 C 104.183594 116.390625 103.800781 115.246094 102.074219 113.914062 C 100.347656 112.578125 97.28125 111.054688 95.367188 109.148438 C 94.417969 108.207031 93.753906 107.171875 93.226562 106.253906 C 93.300781 105.863281 93.398438 105.503906 93.527344 105.179688 C 95.257812 100.820312 100.214844 98.679688 104.597656 100.394531 Z M 104.597656 100.394531 "
        fill-opacity="1" fill-rule="evenodd" />
    <path fill="#ee826c"
        d="M 349.59375 86.757812 C 361.421875 86.757812 371.011719 96.347656 371.011719 108.175781 C 371.011719 120.003906 361.421875 129.589844 349.59375 129.589844 C 337.769531 129.589844 328.179688 120.003906 328.179688 108.175781 C 328.179688 96.347656 337.769531 86.757812 349.59375 86.757812 Z M 349.59375 86.757812 "
        fill-opacity="1" fill-rule="nonzero" />
    <g clip-path="url(#77e9721c19)">
        <path fill="#ee826c"
            d="M 349.59375 132.171875 C 336.359375 132.171875 325.59375 121.40625 325.59375 108.175781 C 325.59375 94.941406 336.359375 84.175781 349.59375 84.175781 C 362.828125 84.175781 373.59375 94.941406 373.59375 108.175781 C 373.59375 121.40625 362.828125 132.171875 349.59375 132.171875 Z M 349.59375 85.820312 C 337.269531 85.820312 327.238281 95.847656 327.238281 108.175781 C 327.238281 120.5 337.269531 130.527344 349.59375 130.527344 C 361.921875 130.527344 371.949219 120.5 371.949219 108.175781 C 371.949219 95.847656 361.921875 85.820312 349.59375 85.820312 Z M 349.59375 85.820312 "
            fill-opacity="1" fill-rule="nonzero" />
    </g>
    <path fill="#ffffff"
        d="M 350.328125 111.375 L 344.496094 111.414062 L 344.242188 112.207031 C 344.050781 112.738281 344.066406 113.179688 344.289062 113.527344 C 344.511719 113.878906 344.980469 114.050781 345.695312 114.046875 L 346.746094 114.039062 L 346.792969 120.882812 L 335.292969 120.960938 L 335.246094 114.113281 L 336.003906 114.109375 C 336.890625 114.101562 337.480469 113.921875 337.78125 113.570312 C 338.082031 113.21875 338.371094 112.703125 338.648438 112.023438 L 342.371094 102.660156 C 342.636719 101.941406 342.679688 101.417969 342.5 101.078125 C 342.320312 100.742188 341.78125 100.578125 340.882812 100.582031 L 340.496094 100.585938 L 340.449219 93.734375 L 359.425781 93.613281 L 359.46875 100.460938 L 359.097656 100.460938 C 358.1875 100.46875 357.644531 100.652344 357.46875 101.007812 C 357.296875 101.371094 357.351562 101.886719 357.636719 102.558594 L 361.484375 111.875 C 361.632812 112.21875 361.765625 112.515625 361.886719 112.765625 C 362 113.019531 362.148438 113.234375 362.324219 113.410156 C 362.496094 113.585938 362.730469 113.71875 363.019531 113.800781 C 363.3125 113.886719 363.679688 113.925781 364.136719 113.921875 L 364.894531 113.921875 L 364.9375 120.769531 L 348.160156 120.875 L 348.117188 114.027344 L 349.132812 114.019531 C 349.832031 114.015625 350.300781 113.839844 350.539062 113.484375 C 350.777344 113.132812 350.792969 112.695312 350.59375 112.164062 Z M 345.417969 108.53125 L 349.351562 108.503906 L 347.46875 102.847656 L 347.320312 102.847656 Z M 345.417969 108.53125 "
        fill-opacity="1" fill-rule="nonzero" />
</svg>