<svg width="18" height="18" viewBox="0 0 48 48" fill="#fe2c55" xmlns="http://www.w3.org/2000/svg"
    style="flex-shrink: 0;">
    <path fill-rule="evenodd" clip-rule="evenodd"
        d="M23.5857 9.58571C27.6805 5.49096 34.3194 5.49096 38.4141 9.58571C42.5089 13.6805 42.5089 20.3194 38.4141 24.4141L37.1212 25.707C36.7307 26.0975 36.0975 26.0975 35.707 25.707L34.2928 24.2928C33.9023 23.9023 33.9023 23.2691 34.2928 22.8786L35.5857 21.5857C38.1184 19.0531 38.1184 14.9468 35.5857 12.4141C33.053 9.88149 28.9468 9.88148 26.4141 12.4141L22.4141 16.4141C20.121 18.7072 19.9041 22.2903 21.7634 24.8275C22.0899 25.2729 22.0976 25.9023 21.707 26.2928L20.2928 27.707C19.9023 28.0975 19.2646 28.1001 18.9126 27.6745C15.5048 23.5554 15.7292 17.4422 19.5857 13.5857L23.5857 9.58571ZM27.707 20.2928C28.0976 19.9023 28.7352 19.8997 29.0873 20.3253C32.495 24.4444 32.2706 30.5576 28.4141 34.4141L24.4141 38.4141C20.3194 42.5089 13.6805 42.5089 9.58571 38.4141C5.49096 34.3193 5.49096 27.6804 9.58573 23.5857L10.8786 22.2928C11.2691 21.9023 11.9023 21.9023 12.2928 22.2928L13.707 23.707C14.0976 24.0975 14.0975 24.7307 13.707 25.1212L12.4141 26.4141C9.88148 28.9468 9.88148 33.053 12.4141 35.5857C14.9468 38.1183 19.053 38.1183 21.5857 35.5857L25.5857 31.5857C27.8788 29.2926 28.0957 25.7095 26.2364 23.1724C25.9099 22.7269 25.9023 22.0975 26.2928 21.707L27.707 20.2928Z">
    </path>
</svg>